<svg width="63" height="64" viewBox="0 0 63 64" fill="none" xmlns="http://www.w3.org/2000/svg">
<path d="M31.5 58.25C45.9975 58.25 57.75 46.4975 57.75 32C57.75 17.5025 45.9975 5.75 31.5 5.75C17.0025 5.75 5.25 17.5025 5.25 32C5.25 46.4975 17.0025 58.25 31.5 58.25Z" stroke="#2C2C2C" stroke-width="5.25" stroke-linecap="round" stroke-linejoin="round"/>
<path d="M23.8613 24.125C24.4785 22.3707 25.6966 20.8913 27.3 19.949C28.9033 19.0067 30.7884 18.6622 32.6214 18.9766C34.4544 19.2911 36.117 20.244 37.3147 21.6668C38.5123 23.0896 39.1678 24.8903 39.1651 26.75C39.1651 32 31.2901 34.625 31.2901 34.625" stroke="#2C2C2C" stroke-width="5.25" stroke-linecap="round" stroke-linejoin="round"/>
<path d="M31.5 45.125H31.5263" stroke="#2C2C2C" stroke-width="5.25" stroke-linecap="round" stroke-linejoin="round"/>
</svg>
