<svg width="52" height="52" viewBox="0 0 52 52" fill="none" xmlns="http://www.w3.org/2000/svg">
<path d="M25.9997 47.6666C37.9658 47.6666 47.6663 37.9661 47.6663 25.9999C47.6663 14.0337 37.9658 4.33325 25.9997 4.33325C14.0335 4.33325 4.33301 14.0337 4.33301 25.9999C4.33301 37.9661 14.0335 47.6666 25.9997 47.6666Z" stroke="#2C2C2C" stroke-width="4.33333" stroke-linecap="round" stroke-linejoin="round"/>
<path d="M26 39C33.1797 39 39 33.1797 39 26C39 18.8203 33.1797 13 26 13C18.8203 13 13 18.8203 13 26C13 33.1797 18.8203 39 26 39Z" stroke="#2C2C2C" stroke-width="4.33333" stroke-linecap="round" stroke-linejoin="round"/>
<path d="M26.0003 30.3332C28.3936 30.3332 30.3337 28.3931 30.3337 25.9998C30.3337 23.6066 28.3936 21.6665 26.0003 21.6665C23.6071 21.6665 21.667 23.6066 21.667 25.9998C21.667 28.3931 23.6071 30.3332 26.0003 30.3332Z" stroke="#2C2C2C" stroke-width="4.33333" stroke-linecap="round" stroke-linejoin="round"/>
</svg>
